<svg xmlns="http://www.w3.org/2000/svg" xmlns:xlink="http://www.w3.org/1999/xlink" viewBox="0 0 255.67 255.67"><defs><style>.a{fill:url(#a);}.b{fill:#fff;}</style><linearGradient id="a" y1="127.83" x2="255.67" y2="127.83" gradientUnits="userSpaceOnUse"><stop offset="0" stop-color="#c9283e"/><stop offset="1" stop-color="#f07d37"/></linearGradient></defs><circle class="a" cx="127.83" cy="127.83" r="127.83"/><path class="b" d="M181.38,177.12l-12.95-13.36a3.84,3.84,0,0,0-5.22,0,55.3,55.3,0,0,1-14.4,8.54l-.61.23-.61.23a47.41,47.41,0,0,1-11.11,2.61l-.6.07-.61,0q-2,.18-4,.18a46.45,46.45,0,0,1-12-1.56l-.61-.18-.6-.18a45,45,0,0,1-11.11-5c-.21-.12-.41-.25-.61-.38l-.61-.41a48.66,48.66,0,0,1-21.21-40.52c0-16.94,8.23-32.23,21.21-41,.21-.13.41-.28.61-.41l.61-.38a44.66,44.66,0,0,1,11.11-5l.6-.18.61-.17A46.19,46.19,0,0,1,131,78.75c1.41,0,2.82.07,4.23.2l.61.07.6.07a48.46,48.46,0,0,1,11.11,2.7l.61.22.61.24a50.1,50.1,0,0,1,14.4,8.82c1.67,1.67,3.76,1.67,5.22,0l12.74-13.15a3.88,3.88,0,0,0-.21-5.85c-9.72-8.72-19.92-14.6-32.15-17.44V42.11c0-.43-.55-.78-1.22-.78H136.48c-.67,0-1.21.35-1.21.78V52.78c-1.59-.08-3.2-.14-4.85-.14a76.49,76.49,0,0,0-11.2.83V42.11c0-.43-.54-.78-1.21-.78H106.9c-.67,0-1.22.35-1.22.78V56.78a75.19,75.19,0,0,0,0,142.15v18.32c0,.41.55.75,1.22.75H118c.67,0,1.21-.34,1.21-.75v-15a77.91,77.91,0,0,0,11.2.81c1.62,0,3.24-.06,4.85-.16v14.39c0,.41.54.75,1.21.75h11.11c.67,0,1.22-.34,1.22-.75V200.78a70.57,70.57,0,0,0,32.36-18C182.63,181.3,183.05,178.59,181.38,177.12Z"/></svg>